simulation
nRows=61
nColumns=15
endheader
time  TH_x TH_y TH_z SC_y  SC_z  SC_x  AC_y  AC_z  AC_x  GH_y  GH_z  GH_yy  EL_x  PS_y
0.250058  0.000000  0.000000  0.000000  -48.516505  1.588923  -10.000000  69.766427  31.485239  3.396645  -43.572146  44.266884  1.310106  27.607051  123.177015
0.250289  0.000000  0.000000  0.000000  -48.516505  1.588923  -5.714286  70.588044  27.453152  1.727665  -43.572146  44.266884  1.310106  27.607051  123.177015
0.250521  0.000000  0.000000  0.000000  -48.516505  1.588923  -1.428571  71.254373  23.402585  0.176855  -43.572146  44.266884  1.310106  27.607051  123.177015
0.250752  0.000000  0.000000  0.000000  -48.516505  1.588923  2.857143  71.786169  19.337620  -1.281572  -43.572146  44.266884  1.310106  27.607051  123.177015
0.250984  0.000000  0.000000  0.000000  -48.516505  1.588923  7.142857  72.199011  15.261633  -2.668946  -43.572146  44.266884  1.310106  27.607051  123.177015
0.251216  0.000000  0.000000  0.000000  -48.516505  1.588923  11.428571  72.504373  11.177435  -4.003347  -43.572146  44.266884  1.310106  27.607051  123.177015
0.251447  0.000000  0.000000  0.000000  -48.516505  1.588923  15.714286  72.710409  7.087491  -5.300596  -43.572146  44.266884  1.310106  27.607051  123.177015
0.251679  0.000000  0.000000  0.000000  -48.516505  1.588923  20.000000  72.822457  2.994015  -6.574973  -43.572146  44.266884  1.310106  27.607051  123.177015
0.251910  0.000000  0.000000  0.000000  -48.516505  1.588923  24.285714  72.843367  -1.100928  -7.839845  -43.572146  44.266884  1.310106  27.607051  123.177015
0.252142  0.000000  0.000000  0.000000  -48.516505  1.588923  28.571429  72.773664  -5.195334  -9.108202  -43.572146  44.266884  1.310106  27.607051  123.177015
0.252373  0.000000  0.000000  0.000000  -48.516505  1.588923  32.857143  72.611587  -9.287175  -10.393170  -43.572146  44.266884  1.310106  27.607051  123.177015
0.252605  0.000000  0.000000  0.000000  -48.516505  1.588923  37.142857  72.352978  -13.374318  -11.708538  -43.572146  44.266884  1.310106  27.607051  123.177015
0.252836  0.000000  0.000000  0.000000  -48.516505  1.588923  41.428571  71.991038  -17.454430  -13.069328  -43.572146  44.266884  1.310106  27.607051  123.177015
0.253068  0.000000  0.000000  0.000000  -48.516505  1.588923  45.714286  71.515901  -21.524871  -14.492478  -43.572146  44.266884  1.310106  27.607051  123.177015
0.253299  0.000000  0.000000  0.000000  -48.516505  1.588923  50.000000  70.914003  -25.582550  -15.997679  -43.572146  44.266884  1.310106  27.607051  123.177015
0.253531  0.000000  0.000000  0.000000  -42.374149  15.419055  -10.000000  56.744892  33.810640  18.662923  -12.993931  54.178539  -8.365502  32.315790  125.849538
0.253762  0.000000  0.000000  0.000000  -42.374149  15.419055  -5.714286  58.186063  30.196721  15.945316  -12.993931  54.178539  -8.365502  32.315790  125.849538
0.253994  0.000000  0.000000  0.000000  -42.374149  15.419055  -1.428571  59.385736  26.530750  13.421658  -12.993931  54.178539  -8.365502  32.315790  125.849538
0.254226  0.000000  0.000000  0.000000  -42.374149  15.419055  2.857143  60.374338  22.823142  11.055283  -12.993931  54.178539  -8.365502  32.315790  125.849538
0.254457  0.000000  0.000000  0.000000  -42.374149  15.419055  7.142857  61.175954  19.082451  8.815056  -12.993931  54.178539  -8.365502  32.315790  125.849538
0.254689  0.000000  0.000000  0.000000  -42.374149  15.419055  11.428571  61.809388  15.315896  6.674235  -12.993931  54.178539  -8.365502  32.315790  125.849538
0.254920  0.000000  0.000000  0.000000  -42.374149  15.419055  15.714286  62.289014  11.529688  4.609421  -12.993931  54.178539  -8.365502  32.315790  125.849538
0.255152  0.000000  0.000000  0.000000  -42.374149  15.419055  20.000000  62.625414  7.729295  2.599708  -12.993931  54.178539  -8.365502  32.315790  125.849538
0.255383  0.000000  0.000000  0.000000  -42.374149  15.419055  24.285714  62.825842  3.919679  0.625937  -12.993931  54.178539  -8.365502  32.315790  125.849538
0.255615  0.000000  0.000000  0.000000  -42.374149  15.419055  28.571429  62.894573  0.105470  -1.329891  -12.993931  54.178539  -8.365502  32.315790  125.849538
0.255846  0.000000  0.000000  0.000000  -42.374149  15.419055  32.857143  62.833051  -3.708866  -3.285240  -12.993931  54.178539  -8.365502  32.315790  125.849538
0.256078  0.000000  0.000000  0.000000  -42.374149  15.419055  37.142857  62.639991  -7.518854  -5.257556  -12.993931  54.178539  -8.365502  32.315790  125.849538
0.256309  0.000000  0.000000  0.000000  -42.374149  15.419055  41.428571  62.311274  -11.319882  -7.264797  -12.993931  54.178539  -8.365502  32.315790  125.849538
0.256541  0.000000  0.000000  0.000000  -42.374149  15.419055  45.714286  61.839811  -15.107012  -9.326038  -12.993931  54.178539  -8.365502  32.315790  125.849538
0.256772  0.000000  0.000000  0.000000  -42.374149  15.419055  50.000000  61.215215  -18.874808  -11.462073  -12.993931  54.178539  -8.365502  32.315790  125.849538
0.257004  0.000000  0.000000  0.000000  -24.911462  -2.506663  -10.000000  70.702036  42.334124  -1.460809  -25.196686  67.466587  18.773338  14.493372  110.866162
0.257235  0.000000  0.000000  0.000000  -24.911462  -2.506663  -5.714286  71.868955  38.274593  -3.263583  -25.196686  67.466587  18.773338  14.493372  110.866162
0.257467  0.000000  0.000000  0.000000  -24.911462  -2.506663  -1.428571  72.821827  34.190411  -4.874621  -25.196686  67.466587  18.773338  14.493372  110.866162
0.257699  0.000000  0.000000  0.000000  -24.911462  -2.506663  2.857143  73.599915  30.087123  -6.336277  -25.196686  67.466587  18.773338  14.493372  110.866162
0.257930  0.000000  0.000000  0.000000  -24.911462  -2.506663  7.142857  74.232275  25.968956  -7.681083  -25.196686  67.466587  18.773338  14.493372  110.866162
0.258162  0.000000  0.000000  0.000000  -24.911462  -2.506663  11.428571  74.740575  21.839204  -8.934647  -25.196686  67.466587  18.773338  14.493372  110.866162
0.258393  0.000000  0.000000  0.000000  -24.911462  -2.506663  15.714286  75.140991  17.700519  -10.117644  -25.196686  67.466587  18.773338  14.493372  110.866162
0.258625  0.000000  0.000000  0.000000  -24.911462  -2.506663  20.000000  75.445479  13.555071  -11.247180  -25.196686  67.466587  18.773338  14.493372  110.866162
0.258856  0.000000  0.000000  0.000000  -24.911462  -2.506663  24.285714  75.662708  9.404727  -12.337906  -25.196686  67.466587  18.773338  14.493372  110.866162
0.259088  0.000000  0.000000  0.000000  -24.911462  -2.506663  28.571429  75.798628  5.251114  -13.402712  -25.196686  67.466587  18.773338  14.493372  110.866162
0.259319  0.000000  0.000000  0.000000  -24.911462  -2.506663  32.857143  75.856821  1.095727  -14.453408  -25.196686  67.466587  18.773338  14.493372  110.866162
0.259551  0.000000  0.000000  0.000000  -24.911462  -2.506663  37.142857  75.838848  -3.060030  -15.501180  -25.196686  67.466587  18.773338  14.493372  110.866162
0.259782  0.000000  0.000000  0.000000  -24.911462  -2.506663  41.428571  75.744230  -7.214758  -16.557124  -25.196686  67.466587  18.773338  14.493372  110.866162
0.260014  0.000000  0.000000  0.000000  -24.911462  -2.506663  45.714286  75.570470  -11.367019  -17.632661  -25.196686  67.466587  18.773338  14.493372  110.866162
0.260245  0.000000  0.000000  0.000000  -24.911462  -2.506663  50.000000  75.312888  -15.515260  -18.740037  -25.196686  67.466587  18.773338  14.493372  110.866162
0.260477  0.000000  0.000000  0.000000  -38.285001  3.216312  -10.000000  68.504105  49.168624  10.148978  -28.752773  57.250483  14.018783  27.783125  122.817406
0.260708  0.000000  0.000000  0.000000  -38.285001  3.216312  -5.714286  70.137215  45.158396  7.923402  -28.752773  57.250483  14.018783  27.783125  122.817406
0.260940  0.000000  0.000000  0.000000  -38.285001  3.216312  -1.428571  71.458491  41.110649  5.992189  -28.752773  57.250483  14.018783  27.783125  122.817406
0.261172  0.000000  0.000000  0.000000  -38.285001  3.216312  2.857143  72.534426  37.034418  4.286335  -28.752773  57.250483  14.018783  27.783125  122.817406
0.261403  0.000000  0.000000  0.000000  -38.285001  3.216312  7.142857  73.413088  32.936252  2.754940  -28.752773  57.250483  14.018783  27.783125  122.817406
0.261635  0.000000  0.000000  0.000000  -38.285001  3.216312  11.428571  74.129649  28.821075  1.359689  -28.752773  57.250483  14.018783  27.783125  122.817406
0.261866  0.000000  0.000000  0.000000  -38.285001  3.216312  15.714286  74.710284  24.692644  0.070857  -28.752773  57.250483  14.018783  27.783125  122.817406
0.262098  0.000000  0.000000  0.000000  -38.285001  3.216312  20.000000  75.174490  20.553915  -1.135082  -28.752773  57.250483  14.018783  27.783125  122.817406
0.262329  0.000000  0.000000  0.000000  -38.285001  3.216312  24.285714  75.536782  16.407278  -2.277246  -28.752773  57.250483  14.018783  27.783125  122.817406
0.262561  0.000000  0.000000  0.000000  -38.285001  3.216312  28.571429  75.807858  12.254736  -3.371641  -28.752773  57.250483  14.018783  27.783125  122.817406
0.262792  0.000000  0.000000  0.000000  -38.285001  3.216312  32.857143  75.995344  8.097996  -4.432057  -28.752773  57.250483  14.018783  27.783125  122.817406
0.263024  0.000000  0.000000  0.000000  -38.285001  3.216312  37.142857  76.104319  3.938566  -5.470745  -28.752773  57.250483  14.018783  27.783125  122.817406
0.263255  0.000000  0.000000  0.000000  -38.285001  3.216312  41.428571  76.137688  -0.222130  -6.499083  -28.752773  57.250483  14.018783  27.783125  122.817406
0.263487  0.000000  0.000000  0.000000  -38.285001  3.216312  45.714286  76.096323  -4.382761  -7.528001  -28.752773  57.250483  14.018783  27.783125  122.817406
0.263718  0.000000  0.000000  0.000000  -38.285001  3.216312  50.000000  75.979133  -8.541965  -8.568470  -28.752773  57.250483  14.018783  27.783125  122.817406
0.263950  0.000000  0.000000  0.000000  -49.709964  10.371998  -10.000000  65.050168  37.571805  9.765937  -37.024304  58.709814  -4.256750  27.840547  114.261054
